<svg height="766" width="720" xmlns="http://www.w3.org/2000/svg">
<rect height="766" fill="#555" width="720"></rect>
<text fill="#7f7" font-family="Courier New" font-size="12" xml:space="preserve">
<tspan x="10" y="26">12 megabytes installed</tspan>
<tspan x="10" y="42"></tspan>
<tspan x="10" y="58">node_modules</tspan>
<tspan x="10" y="74">└─┬ meteor-jsdoc@1.0.4 </tspan>
<tspan x="10" y="90">  ├── canonical-json@0.0.4 </tspan>
<tspan x="10" y="106">  ├─┬ cjson@0.4.0 </tspan>
<tspan x="10" y="122">  │ └─┬ json-parse-helpfulerror@1.0.3 </tspan>
<tspan x="10" y="138">  │   └── jju@1.3.0 </tspan>
<tspan x="10" y="154">  ├── colors@1.1.2 </tspan>
<tspan x="10" y="170">  ├── ejs@2.4.2 </tspan>
<tspan x="10" y="186">  ├─┬ fs-extra@0.26.7 </tspan>
<tspan x="10" y="202">  │ ├── graceful-fs@4.1.11 </tspan>
<tspan x="10" y="218">  │ ├── jsonfile@2.4.0 </tspan>
<tspan x="10" y="234">  │ ├── klaw@1.3.1 </tspan>
<tspan x="10" y="250">  │ ├── path-is-absolute@1.0.1 </tspan>
<tspan x="10" y="266">  │ └─┬ rimraf@2.6.1 </tspan>
<tspan x="10" y="282">  │   └─┬ glob@7.1.1 </tspan>
<tspan x="10" y="298">  │     ├── fs.realpath@1.0.0 </tspan>
<tspan x="10" y="314">  │     ├─┬ inflight@1.0.6 </tspan>
<tspan x="10" y="330">  │     │ └── wrappy@1.0.2 </tspan>
<tspan x="10" y="346">  │     ├── inherits@2.0.3 </tspan>
<tspan x="10" y="362">  │     ├─┬ minimatch@3.0.3 </tspan>
<tspan x="10" y="378">  │     │ └─┬ brace-expansion@1.1.7 </tspan>
<tspan x="10" y="394">  │     │   ├── balanced-match@0.4.2 </tspan>
<tspan x="10" y="410">  │     │   └── concat-map@0.0.1 </tspan>
<tspan x="10" y="426">  │     └── once@1.4.0 </tspan>
<tspan x="10" y="442">  ├─┬ jsdoc@3.5.0-dev  (git://github.com/jsdoc3/jsdoc.git#dd905a26173bcf2f7d509457ef28d988f220d3\</tspan>
<tspan x="10" y="458">e7)</tspan>
<tspan x="10" y="474">  │ ├── bluebird@3.4.7 </tspan>
<tspan x="10" y="490">  │ ├─┬ catharsis@0.8.8 </tspan>
<tspan x="10" y="506">  │ │ └─┬ underscore-contrib@0.3.0 </tspan>
<tspan x="10" y="522">  │ │   └── underscore@1.6.0 </tspan>
<tspan x="10" y="538">  │ ├── escape-string-regexp@1.0.5 </tspan>
<tspan x="10" y="554">  │ ├─┬ espree@3.1.7 </tspan>
<tspan x="10" y="570">  │ │ ├── acorn@3.3.0 </tspan>
<tspan x="10" y="586">  │ │ └── acorn-jsx@3.0.1 </tspan>
<tspan x="10" y="602">  │ ├── js2xmlparser@1.0.0 </tspan>
<tspan x="10" y="618">  │ ├── marked@0.3.6 </tspan>
<tspan x="10" y="634">  │ ├─┬ mkdirp@0.5.1 </tspan>
<tspan x="10" y="650">  │ │ └── minimist@0.0.8 </tspan>
<tspan x="10" y="666">  │ ├─┬ requizzle@0.2.1 </tspan>
<tspan x="10" y="682">  │ │ └── underscore@1.6.0 </tspan>
<tspan x="10" y="698">  │ ├── strip-json-comments@2.0.1 </tspan>
<tspan x="10" y="714">  │ ├── taffydb@2.6.2 </tspan>
<tspan x="10" y="730">  │ └── underscore@1.8.3 </tspan>
<tspan x="10" y="746">  └── lodash@4.6.1</tspan>
</text>
</svg>
